<?xml version="1.0" standalone="no"?><!-- Generator: Gravit.io --><svg xmlns="http://www.w3.org/2000/svg" xmlns:xlink="http://www.w3.org/1999/xlink" style="isolation:isolate" viewBox="0 0 200 200" width="200" height="200"><defs><clipPath id="_clipPath_teFMU5a9W9EVkueUQeoQtygvh85ATH0z"><rect width="200" height="200"/></clipPath></defs><g clip-path="url(#_clipPath_teFMU5a9W9EVkueUQeoQtygvh85ATH0z)"><g style="isolation:isolate" id="Layer 0"><polygon points="52.606,181.667,4.878,99,52.606,16.333,148.061,16.333,195.789,99,148.061,181.667" fill="none" vector-effect="non-scaling-stroke" stroke-width="1" stroke="rgb(0,0,0)" stroke-linejoin="miter" stroke-linecap="square" stroke-miterlimit="3"/></g><g style="isolation:isolate" id="Hadoop"><g id="_x33_e91140ac1bfb9903b91c1b0ca0929ce"><path d=" M 162.89 65.032 C 161.938 68.811 160.005 72.014 156.009 73.441 C 154.048 74.134 152.793 73.427 150.788 72.85 C 152.75 73.038 153.875 73.34 155.634 72.475 C 158.923 70.845 161.332 68.191 162.89 65.032 Z  M 170.88 89.856 C 170.419 94.428 169.193 98.885 167.015 102.649 C 165.068 106.025 162.356 108.866 158.735 110.813 C 156.283 112.126 153.428 112.876 150.471 113.193 C 147.398 113.511 144.24 113.337 141.283 112.847 C 141.139 113.309 141.009 113.77 140.865 114.217 C 140.691 114.794 140.518 115.371 140.345 115.934 C 139.739 117.91 138.297 119.698 136.509 121.025 C 134.662 122.396 132.398 123.29 130.292 123.376 C 128.287 123.477 126.729 123.001 125.345 122.179 C 124.003 121.4 122.864 120.304 121.623 119.107 L 119.993 117.52 C 119.633 117.16 119.258 116.814 118.897 116.453 C 118.854 116.713 118.825 116.958 118.782 117.174 C 119.359 118.342 119.763 119.424 120.181 120.549 L 120.181 120.549 C 120.441 121.242 120.715 121.963 121.032 122.742 C 121.508 123.896 121.883 124.848 122.128 125.843 C 122.388 126.852 122.518 127.862 122.546 129.117 C 122.575 130.184 122.604 131.252 122.633 132.319 C 122.662 133.329 122.691 134.324 122.719 135.334 C 123.167 136.141 123.426 136.689 123.556 137.295 C 123.7 137.944 123.686 138.579 123.614 139.617 C 123.455 141.94 122.676 143.238 121.393 143.973 C 120.181 144.666 118.58 144.767 116.604 144.752 C 116.301 144.752 115.811 144.752 115.219 144.752 C 113.301 144.752 110.315 144.752 109.406 144.695 C 108.18 144.608 107.171 144.507 106.32 144.305 C 105.656 144.146 105.123 143.916 104.675 143.584 C 104.012 144.118 103.435 144.594 102.858 145.07 C 101.156 146.483 99.411 147.911 98.718 148.373 C 98.444 148.791 98.214 149.195 97.983 149.584 C 97.262 150.839 96.742 151.762 95.04 152.685 C 91.723 154.474 89.156 154.315 86.905 152.945 C 84.756 151.632 82.982 149.209 81.136 146.353 C 80.256 144.997 78.843 142.762 78.165 140.569 C 77.4 138.146 77.516 135.781 79.924 134.54 C 80.04 134.483 80.155 134.425 80.271 134.367 C 80.516 134.237 80.761 134.122 80.992 133.992 C 80.069 134.035 79.16 134.079 78.237 134.064 C 76.434 134.05 74.631 133.935 72.785 133.689 C 72.813 133.906 72.842 134.079 72.857 134.194 C 73.001 135.42 73.102 136.213 72.972 137.021 C 72.857 137.843 72.525 138.579 71.833 139.632 C 71.789 139.704 71.631 139.935 71.501 140.122 C 70.852 141.074 70.477 141.651 69.583 143.613 C 69.669 144.579 69.698 145.373 69.64 146.151 C 69.568 146.988 69.395 147.839 69.092 148.964 C 68.328 151.777 65.501 152.426 62.371 152.224 C 59.5 152.051 56.342 151.142 54.524 150.652 C 54.135 150.551 53.803 150.464 53.5 150.378 C 51.971 149.974 50.312 149.541 48.913 148.906 C 46.13 147.637 44.341 145.632 46.072 141.81 C 46.346 141.204 46.591 140.584 46.822 139.964 C 46.908 139.747 46.966 139.531 47.038 139.315 C 45.625 139.531 44.11 139.271 42.639 138.709 C 40.072 137.728 37.62 135.867 36.12 134.367 C 34.922 133.17 33.985 131.872 33.292 130.545 C 32.542 129.103 32.052 127.617 31.807 126.146 C 31.403 123.737 31.691 123.463 33.105 122.107 C 33.321 121.905 33.552 121.674 33.61 121.617 C 34.317 120.924 35.009 120.232 35.716 119.54 C 36.466 118.804 37.216 118.054 37.966 117.304 C 38.312 116.381 38.644 115.458 38.99 114.52 C 39.206 113.929 39.437 113.323 39.653 112.732 C 39.552 112.184 39.451 111.621 39.379 111.044 C 39.293 110.381 39.221 109.76 39.163 109.212 C 38.947 106.674 38.874 104.481 38.947 102.505 C 39.004 100.991 39.149 99.606 39.379 98.279 C 38.211 98.539 37.014 98.524 35.918 98.178 C 34.576 97.745 33.408 96.822 32.687 95.293 C 32.413 94.731 32.196 94.168 31.994 93.534 C 31.821 92.971 31.648 92.351 31.475 91.63 C 30.509 90.635 29.975 89.596 29.788 88.543 C 29.571 87.317 29.816 86.105 30.364 84.937 C 30.884 83.812 31.691 82.745 32.615 81.778 C 35.124 79.182 38.687 77.22 40.331 76.932 L 41.572 76.716 L 41.153 77.913 C 40.937 78.519 40.692 79.153 40.447 79.773 C 40.375 79.961 40.302 80.134 40.23 80.336 C 40.995 80.942 41.456 81.778 41.658 82.73 C 41.99 84.202 41.774 85.904 41.485 87.173 L 41.168 88.644 L 40.201 87.432 C 39.971 87.144 39.769 86.841 39.581 86.553 C 39.408 86.293 39.249 86.033 39.076 85.831 C 38.947 87.807 38.701 89.784 37.302 91.139 C 37.346 91.312 37.36 91.399 37.389 91.413 C 37.418 91.428 37.648 91.298 38.225 91.067 C 39.221 90.692 40.1 90.058 40.923 89.322 C 41.774 88.558 42.552 87.678 43.346 86.812 C 44.24 85.081 45.264 83.437 46.447 81.879 C 47.658 80.293 49.043 78.793 50.644 77.365 C 54.567 73.889 58.375 71.581 62.702 69.908 C 66.943 68.278 71.66 67.239 77.458 66.316 C 78.193 65.566 78.929 64.816 79.694 64.066 C 80.516 63.287 81.352 62.508 82.232 61.715 C 83.473 60.619 84.511 59.955 85.535 59.551 C 86.458 59.176 87.381 59.032 88.42 58.946 C 90.194 56.58 91.809 54.561 93.699 52.801 C 95.689 50.955 97.968 49.426 101.041 48.142 C 107.416 45.459 112.81 44.06 117.916 44.378 C 123.066 44.695 127.869 46.758 133.032 51.013 C 133.999 51.82 134.994 52.686 135.989 53.551 C 138.153 55.455 140.273 57.316 142.768 58.874 C 143.706 59.45 144.499 59.955 145.293 60.561 C 146.071 61.152 146.778 61.816 147.528 62.696 C 148.423 63.778 149.245 64.845 149.966 65.999 C 150.572 66.965 151.105 67.989 151.567 69.1 C 152.62 68.667 153.745 68.206 154.639 67.456 C 155.418 66.792 156.053 65.855 156.702 64.917 C 157.279 64.066 157.856 63.229 158.534 62.552 C 158.75 62.321 159.01 62.133 159.284 61.989 C 160.337 61.441 161.664 61.527 162.933 61.96 C 164.116 62.364 165.269 63.085 166.048 63.864 C 166.409 64.21 166.697 64.585 166.885 64.96 C 168.457 67.96 169.582 72.114 170.26 76.413 C 171.039 81.201 171.241 86.192 170.88 89.856 Z  M 148.942 70.138 C 148.711 70.138 148.495 70.153 148.278 70.153 C 148.61 70.47 148.855 70.845 149.043 71.263 C 149.129 71.177 149.245 71.09 149.346 71.018 C 149.216 70.73 149.072 70.427 148.942 70.138 Z  M 38.528 83.524 C 39.105 83.452 39.466 83.769 39.913 84.216 C 39.826 83.149 39.624 82.355 38.874 81.908 C 38.817 82.081 38.773 82.254 38.73 82.427 C 38.644 82.774 38.586 83.134 38.528 83.524 Z  M 40.836 95.192 C 40.894 95.005 40.951 94.817 41.009 94.615 C 41.37 93.462 41.759 92.351 42.177 91.269 C 41.298 92.062 40.317 92.726 39.12 93.216 C 36.033 94.457 36.091 93.389 34.764 90.707 C 37.591 88.457 36.278 85.687 37.187 82.572 C 37.403 81.85 37.706 81.158 38.124 80.235 C 35.168 82.009 29.73 86.985 33.365 90.764 C 33.754 92.192 34.057 93.288 34.605 94.414 C 35.716 96.721 38.629 96.13 40.836 95.192 Z  M 49.014 132.867 C 45.856 128.093 43 122.396 41.326 116.612 C 41.024 117.434 40.706 118.27 40.403 119.093 C 38.99 120.52 37.576 121.948 36.163 123.391 C 35.11 124.458 34.908 124.487 35.124 126.001 C 35.413 128.064 36.624 130.256 38.442 132.117 C 40.1 133.819 45.856 138.247 48.106 135.233 C 48.582 134.584 48.812 133.79 49.014 132.968 C 49.014 132.925 49.014 132.91 49.014 132.867 Z  M 118.407 123.823 C 117.902 122.641 117.628 121.53 117.282 120.405 C 116.532 123.088 115.522 125.626 114.599 128.526 C 113.734 131.281 109.248 139.257 106.623 141.19 C 107.142 141.565 108.079 141.723 109.753 141.868 C 110.935 141.969 115.609 141.997 116.791 142.012 C 119.373 142.055 120.354 141.868 120.628 138.925 C 120.758 137.483 120.642 137.209 119.921 135.954 C 119.864 133.704 119.791 131.439 119.734 129.189 C 119.662 127.054 119.243 125.814 118.407 123.823 Z  M 164.88 67.138 C 164.274 65.682 161.88 63.504 160.351 64.989 C 158.808 66.489 157.654 68.61 155.966 69.936 C 153.673 71.739 149.735 71.119 150.456 74.942 C 150.976 77.725 151.12 80.841 150.528 83.437 C 149.966 85.932 149.375 89.466 148.062 91.139 C 148.451 89.726 149.086 86.033 149.274 83.552 C 149.375 82.197 149.216 80.552 148.971 78.894 C 148.682 78.894 148.394 78.908 148.105 78.908 C 147.052 78.922 145.35 80.437 144.889 81.375 C 143.605 83.985 143.518 86.423 142.076 88.904 C 143.23 86.12 142.581 83.61 143.634 80.624 C 144.009 79.572 144.946 78.663 146.043 78.115 C 145.437 78.028 144.831 78.288 143.937 78.504 C 140.1 79.413 140.273 82.442 137.908 85.312 C 140.187 81.129 139.018 78.36 143.951 77.235 C 145.581 76.86 146.764 76.716 147.831 77.567 C 147.86 77.567 147.874 77.567 147.903 77.567 C 148.177 77.552 148.466 77.523 148.74 77.509 C 148.596 76.744 148.451 75.994 148.307 75.273 C 146.057 74.985 143.966 75.042 141.658 75.389 C 142.163 75.172 142.639 74.97 143.115 74.797 C 143.85 74.523 144.571 74.307 145.278 74.191 C 145.35 74.047 145.394 73.889 145.408 73.73 C 145.48 72.951 144.903 72.259 144.124 72.172 C 143.345 72.1 142.682 72.677 142.595 73.456 C 142.567 73.759 142.682 74.134 142.855 74.437 C 142.812 74.365 142.783 74.307 142.74 74.235 L 142.74 74.235 C 142.437 73.658 142.307 72.994 142.365 72.316 C 142.422 71.797 142.581 71.321 142.826 70.888 C 142.754 70.903 142.667 70.932 142.595 70.961 C 142.047 71.177 140.879 71.105 140.345 70.932 C 141.384 70.759 142.927 70.211 143.922 69.72 C 143.951 69.706 143.98 69.691 143.994 69.677 C 144.615 69.287 145.365 69.1 146.144 69.172 C 146.533 69.215 146.908 69.316 147.254 69.475 C 147.716 69.605 148.235 69.792 148.87 70.023 C 147.918 68.033 146.85 66.244 145.552 64.441 C 144.326 62.739 143.302 62.148 141.499 61.08 C 141.11 60.85 140.72 60.619 140.345 60.374 C 139.004 60.128 137.518 59.883 136.235 60.128 C 137.287 59.71 138.095 59.537 139.018 59.465 C 136.465 57.633 134.258 55.57 131.734 53.45 C 121.998 45.258 114.123 45.849 101.719 51.229 C 96.685 53.421 94.882 55.628 91.795 59.58 C 91.824 59.58 91.853 59.58 91.896 59.58 C 95.04 59.494 98.17 59.393 101.416 59.09 C 98.069 59.869 94.867 60.489 91.579 60.994 C 87.958 61.542 86.833 61.455 84.107 64.124 C 79.073 69.028 74.847 74.567 70.232 79.543 C 67.563 82.427 66.236 85.312 64.664 88.601 C 63.106 91.861 63.323 93.101 65.414 95.928 C 67.549 98.813 68.833 100.125 69.741 102.693 C 72.092 99.058 74.934 96.043 77.934 92.423 C 75.496 96.346 73.261 100.039 71.241 104.02 C 69.986 106.501 69.366 107.755 69.409 110.496 C 71.775 113.222 73.246 114.664 75.453 115.27 C 77.818 115.919 80.04 115.818 82.174 114.708 C 87.482 111.953 92.531 108.376 98.43 107.914 C 101.473 102.491 100.622 95.668 99.526 89.495 C 98.617 84.36 98.848 79.846 100.074 74.696 C 100.377 79.687 100.781 84.331 101.776 89.221 C 103.219 96.39 103.522 102.592 100.507 110.006 C 93.987 110.164 88.636 113.987 82.867 116.929 C 80.271 118.256 77.833 118.386 74.934 117.708 C 71.962 117.001 69.698 114.722 66.64 111.376 C 66.943 108.852 67.275 107.279 68.169 105.433 C 67.087 102.159 65.731 100.645 63.236 97.298 C 60.351 93.418 60.294 91.731 62.486 87.303 C 64.058 84.101 65.544 81.144 68.039 78.216 C 70.491 75.317 72.756 72.619 75.035 70.066 C 65.558 71.509 59.5 73.788 53.024 79.471 C 48.221 83.682 45.221 88.918 43.086 94.962 C 41.73 98.77 41.355 102.621 41.99 108.852 C 42.812 116.886 47.082 125.958 51.668 132.579 C 51.106 136.704 50.385 139.805 49.231 142.747 C 47.933 146.079 53.111 147.103 55.62 147.796 C 57.654 148.358 65.385 150.479 66.15 147.738 C 66.611 146.094 66.611 144.954 66.496 143.223 C 67.866 140.483 68.284 140.108 69.28 138.492 C 70.333 136.747 70.419 136.055 70.434 134.021 C 70.434 131.382 70.376 126.679 70.477 124.992 C 70.837 126.506 71.256 128.627 71.602 130.66 C 77.097 131.641 82.535 131.569 88.03 130.444 C 88.103 130.055 88.232 129.636 88.362 129.131 C 88.723 127.848 89.473 126.564 89.833 125.28 C 89.732 126.55 89.631 127.804 89.531 129.074 C 89.43 130.372 89.43 131.425 89.588 132.723 C 89.675 133.444 89.761 134.151 89.848 134.872 C 89.444 134.223 88.838 133.588 88.478 132.925 C 86.04 134.526 84.684 135.449 82.29 136.704 C 79.751 138.045 82.665 142.848 83.703 144.507 C 86.011 148.156 88.752 152.483 93.021 150.233 C 94.42 149.498 95.242 147.781 96.18 146.541 C 97.435 145.805 104.098 140.194 105.151 139.574 C 106.651 138.723 112.032 129.896 112.709 127.703 C 114.21 122.828 115.984 119.136 116.474 114.059 C 113.056 112.616 111.382 111.015 108.93 108.13 C 112.378 110.683 115.363 112.054 119.085 113.236 C 120.441 114.434 121.811 115.645 123.224 116.9 C 125.287 118.732 127.176 120.607 130.177 120.665 C 133.407 120.722 137.071 118.242 138.009 115.184 C 138.369 114.001 138.73 112.818 139.09 111.635 C 138.456 111.477 137.821 111.304 137.215 111.131 C 136.537 112.746 136.595 113.366 136.278 114.549 C 135.73 116.568 132.946 117.982 130.018 117.275 C 128.979 117.03 128.374 116.886 127.999 116.612 C 128.287 117.405 128.864 118.083 129.931 118.285 C 131.114 118.501 131.98 118.602 133.696 118.213 C 131.576 119.309 130.898 119.352 129.398 119.02 C 125.446 118.141 126.845 113.395 127.696 110.482 C 128.229 108.65 128.056 106.703 127.638 104.871 C 129.138 105.823 130.321 106.645 132.023 107.222 C 139.999 109.905 149.447 112.645 157.481 108.159 C 163.769 104.654 167.217 96.851 167.996 89.726 C 168.673 83.379 167.491 73.456 164.88 67.138 Z  M 124.191 105.448 C 124.032 106.443 123.816 107.655 123.671 108.65 C 124.09 107.525 124.595 106.241 125.085 105.174 C 125.604 104.049 125.893 103.948 126.974 103.342 C 127.753 102.924 129.167 102.332 129.931 101.914 C 129.138 102.044 127.71 102.332 126.917 102.476 C 124.782 102.837 124.522 103.342 124.191 105.448 Z  M 87.8 67.355 C 85.333 69.807 82.924 78.187 82.16 81.548 C 83.372 78.764 86.386 70.961 88.708 68.985 C 89.343 68.436 89.805 68.105 90.281 67.859 C 88.622 70.643 88.737 71.336 89.329 75.071 C 89.819 71.278 91.146 69.807 93.295 66.98 C 95.661 66.388 97.867 65.682 100.291 64.73 C 97.565 65.032 94.838 65.321 92.098 65.581 C 89.805 65.782 89.43 65.754 87.8 67.355 Z  M 128.821 76.644 C 128.287 75.533 127.364 74.725 126.282 74.336 C 127.263 73.802 128.215 73.254 128.979 72.576 C 126.787 73.6 124.22 73.34 122.344 74.624 C 120.671 75.749 118.378 79.297 116.69 80.812 C 117.916 80.336 119.085 79.514 120.181 78.663 C 120.195 79.297 120.34 79.961 120.614 80.581 C 120.917 81.216 121.349 81.735 121.854 82.139 C 121.71 81.995 121.58 81.836 121.493 81.634 C 121.046 80.697 121.45 79.557 122.388 79.11 C 123.34 78.648 124.479 79.052 124.926 80.004 C 124.97 80.091 125.013 80.192 125.027 80.278 C 124.119 80.956 123.296 81.735 122.604 82.658 C 121.998 83.452 121.493 84.36 121.133 85.355 C 124.349 81.548 129.008 78.663 133.393 77.437 C 132.167 77.422 130.71 77.653 129.239 78.129 C 129.181 77.624 129.037 77.12 128.821 76.644 Z  M 113.113 73.211 C 113.849 69.936 115.161 66.778 120.253 64.34 C 113.517 66.028 112.248 68.855 113.113 73.211 Z " fill="rgb(0,0,0)"/></g></g></g></svg>
