<?xml version="1.0" encoding="UTF-8" standalone="no"?>
<svg
   xmlns:dc="http://purl.org/dc/elements/1.1/"
   xmlns:cc="http://creativecommons.org/ns#"
   xmlns:rdf="http://www.w3.org/1999/02/22-rdf-syntax-ns#"
   xmlns:svg="http://www.w3.org/2000/svg"
   xmlns="http://www.w3.org/2000/svg"
   id="svg14"
   version="1.1"
   height="200"
   width="200"
   viewBox="0 0 200 200"
   style="isolation:isolate">
  <metadata
     id="metadata18">
    <rdf:RDF>
      <cc:Work
         rdf:about="">
        <dc:format>image/svg+xml</dc:format>
        <dc:type
           rdf:resource="http://purl.org/dc/dcmitype/StillImage" />
        <dc:title></dc:title>
      </cc:Work>
    </rdf:RDF>
  </metadata>
  <defs
     id="defs5">
    <clipPath
       id="_clipPath_ZhVvrOmC27kQc386s8PSMyBdZs4oCzfz">
      <rect
         id="rect2"
         height="200"
         width="200" />
    </clipPath>
  </defs>
  <g
     id="g12"
     clip-path="url(#_clipPath_ZhVvrOmC27kQc386s8PSMyBdZs4oCzfz)">
    <g
       id="Layer 0"
       style="isolation:isolate">
      <polygon
         id="polygon7"
         fill="rgb(83,107,185)"
         points="52.606,181.667,4.878,99,52.606,16.333,148.061,16.333,195.789,99,148.061,181.667" />
      <path
         id="path9"
         stroke-miterlimit="4"
         stroke-linecap="butt"
         stroke-linejoin="miter"
         stroke="rgb(255,255,255)"
         stroke-width="0.25"
         vector-effect="non-scaling-stroke"
         fill="rgb(255,255,255)"
         d=" M 101.073 25 C 98.724 25 96.82 27.116 96.82 29.726 C 96.82 29.766 96.828 29.804 96.829 29.844 C 96.826 30.198 96.808 30.626 96.82 30.934 C 96.876 32.44 97.204 33.592 97.402 34.979 C 97.759 37.947 98.059 40.407 97.874 42.694 C 97.694 43.557 97.059 44.345 96.493 44.893 L 96.393 46.693 C 93.84 46.904 91.271 47.292 88.704 47.874 C 77.661 50.382 68.153 56.07 60.913 63.751 C 60.444 63.431 59.622 62.841 59.378 62.66 C 58.618 62.763 57.851 62.997 56.851 62.415 C 54.948 61.134 53.214 59.365 51.117 57.235 C 50.156 56.216 49.46 55.245 48.318 54.263 C 48.058 54.04 47.663 53.738 47.372 53.509 C 46.48 52.797 45.427 52.426 44.41 52.391 C 43.102 52.346 41.844 52.857 41.02 53.891 C 39.556 55.727 40.024 58.534 42.065 60.161 C 42.086 60.178 42.108 60.191 42.129 60.207 C 42.409 60.434 42.752 60.725 43.01 60.916 C 44.222 61.81 45.329 62.268 46.536 62.978 C 49.08 64.549 51.189 65.852 52.862 67.422 C 53.515 68.119 53.629 69.346 53.716 69.876 L 55.079 71.094 C 47.781 82.076 44.404 95.641 46.4 109.463 L 44.619 109.981 C 44.149 110.588 43.486 111.541 42.792 111.826 C 40.604 112.515 38.141 112.769 35.167 113.08 C 33.771 113.196 32.567 113.127 31.087 113.407 C 30.761 113.469 30.307 113.587 29.951 113.671 C 29.938 113.674 29.927 113.677 29.915 113.68 C 29.895 113.685 29.87 113.694 29.851 113.698 C 27.344 114.304 25.734 116.608 26.252 118.878 C 26.771 121.149 29.219 122.53 31.741 121.986 C 31.759 121.982 31.786 121.982 31.805 121.977 C 31.833 121.971 31.858 121.957 31.887 121.95 C 32.238 121.873 32.679 121.787 32.986 121.705 C 34.441 121.315 35.495 120.743 36.803 120.242 C 39.617 119.232 41.948 118.389 44.219 118.06 C 45.167 117.986 46.167 118.646 46.664 118.924 L 48.518 118.606 C 52.784 131.833 61.725 142.524 73.046 149.232 L 72.273 151.086 C 72.552 151.806 72.859 152.78 72.652 153.491 C 71.826 155.632 70.412 157.891 68.802 160.41 C 68.022 161.574 67.224 162.477 66.521 163.809 C 66.352 164.128 66.138 164.617 65.975 164.954 C 64.882 167.293 65.684 169.987 67.784 170.998 C 69.897 172.015 72.52 170.942 73.655 168.599 C 73.657 168.595 73.662 168.593 73.664 168.589 C 73.665 168.587 73.663 168.583 73.664 168.58 C 73.825 168.248 74.055 167.811 74.191 167.499 C 74.794 166.118 74.994 164.935 75.418 163.6 C 76.543 160.773 77.161 157.807 78.711 155.959 C 79.135 155.453 79.826 155.259 80.543 155.067 L 81.507 153.322 C 91.376 157.11 102.424 158.127 113.46 155.621 C 115.977 155.049 118.408 154.31 120.758 153.422 C 121.028 153.902 121.531 154.825 121.666 155.057 C 122.395 155.295 123.19 155.417 123.838 156.375 C 124.997 158.355 125.79 160.698 126.756 163.527 C 127.179 164.863 127.389 166.046 127.992 167.426 C 128.129 167.741 128.357 168.184 128.519 168.517 C 129.651 170.868 132.282 171.944 134.399 170.925 C 136.498 169.914 137.301 167.22 136.207 164.882 C 136.044 164.545 135.821 164.055 135.653 163.736 C 134.949 162.405 134.151 161.51 133.372 160.347 C 131.761 157.828 130.426 155.735 129.6 153.594 C 129.255 152.49 129.658 151.804 129.927 151.086 C 129.766 150.901 129.422 149.859 129.218 149.368 C 140.984 142.421 149.662 131.332 153.738 118.524 C 154.288 118.61 155.245 118.78 155.555 118.842 C 156.195 118.42 156.783 117.87 157.936 117.961 C 160.207 118.289 162.538 119.132 165.352 120.142 C 166.66 120.643 167.714 121.224 169.169 121.614 C 169.476 121.696 169.917 121.773 170.269 121.85 C 170.297 121.857 170.322 121.871 170.35 121.877 C 170.369 121.882 170.396 121.882 170.414 121.887 C 172.936 122.429 175.385 121.049 175.903 118.778 C 176.421 116.508 174.811 114.203 172.304 113.598 C 171.94 113.515 171.422 113.375 171.068 113.307 C 169.588 113.027 168.384 113.096 166.988 112.98 C 164.014 112.669 161.552 112.415 159.363 111.726 C 158.471 111.38 157.836 110.318 157.527 109.881 L 155.81 109.382 C 156.7 102.939 156.46 96.233 154.919 89.524 C 153.364 82.753 150.615 76.56 146.949 71.103 C 147.39 70.703 148.222 69.966 148.458 69.749 C 148.526 68.986 148.467 68.186 149.257 67.341 C 150.93 65.77 153.039 64.468 155.582 62.897 C 156.79 62.186 157.906 61.729 159.118 60.834 C 159.392 60.631 159.766 60.311 160.054 60.079 C 162.094 58.452 162.564 55.645 161.099 53.809 C 159.634 51.973 156.796 51.8 154.755 53.427 C 154.465 53.657 154.071 53.957 153.81 54.181 C 152.668 55.164 151.963 56.134 151.002 57.153 C 148.905 59.284 147.171 61.061 145.268 62.342 C 144.443 62.822 143.235 62.656 142.687 62.624 L 141.069 63.778 C 131.845 54.106 119.286 47.921 105.762 46.72 C 105.725 46.153 105.675 45.129 105.662 44.821 C 105.109 44.291 104.44 43.839 104.272 42.694 C 104.087 40.407 104.396 37.947 104.754 34.979 C 104.951 33.592 105.279 32.44 105.335 30.934 C 105.348 30.592 105.328 30.096 105.326 29.726 C 105.326 27.116 103.422 25 101.073 25 L 101.073 25 Z  M 95.748 57.989 L 94.484 80.3 L 94.393 80.346 C 94.309 82.341 92.666 83.935 90.649 83.935 C 89.823 83.935 89.061 83.67 88.441 83.217 L 88.404 83.235 L 70.11 70.267 C 75.733 64.738 82.925 60.653 91.213 58.771 C 92.727 58.427 94.24 58.172 95.748 57.989 Z  M 106.408 57.989 C 116.084 59.179 125.033 63.561 131.89 70.276 L 113.714 83.163 L 113.651 83.136 C 112.038 84.314 109.765 84.021 108.507 82.445 C 107.992 81.799 107.722 81.04 107.689 80.273 L 107.671 80.264 L 106.408 57.989 Z  M 63.476 78.601 L 80.18 93.541 L 80.162 93.632 C 81.669 94.943 81.892 97.217 80.634 98.794 C 80.119 99.44 79.43 99.873 78.689 100.075 L 78.671 100.148 L 57.26 106.328 C 56.17 96.363 58.519 86.677 63.476 78.601 Z  M 138.552 78.61 C 141.034 82.632 142.913 87.125 144.032 91.996 C 145.137 96.809 145.415 101.613 144.959 106.255 L 123.438 100.057 L 123.42 99.966 C 121.493 99.44 120.309 97.479 120.758 95.513 C 120.941 94.708 121.369 94.026 121.948 93.523 L 121.939 93.478 L 138.552 78.61 L 138.552 78.61 Z  M 97.647 94.695 L 104.49 94.695 L 108.743 100.012 L 107.217 106.646 L 101.073 109.6 L 94.911 106.637 L 93.385 100.003 L 97.647 94.695 Z  M 119.585 112.889 C 119.876 112.875 120.166 112.901 120.449 112.953 L 120.485 112.908 L 142.632 116.652 C 139.391 125.758 133.189 133.647 124.902 138.926 L 116.304 118.16 L 116.332 118.124 C 115.542 116.289 116.332 114.137 118.149 113.262 C 118.614 113.038 119.101 112.914 119.585 112.889 L 119.585 112.889 Z  M 82.388 112.98 C 84.078 113.004 85.594 114.177 85.987 115.898 C 86.171 116.703 86.081 117.501 85.778 118.206 L 85.842 118.288 L 77.335 138.845 C 69.382 133.741 63.048 126.1 59.659 116.725 L 81.616 112.998 L 81.652 113.044 C 81.898 112.999 82.147 112.977 82.388 112.98 L 82.388 112.98 Z  M 100.937 121.986 C 101.525 121.965 102.123 122.086 102.691 122.359 C 103.435 122.718 104.01 123.282 104.372 123.959 L 104.454 123.959 L 115.278 143.516 C 113.873 143.987 112.429 144.389 110.952 144.724 C 102.674 146.604 94.422 146.034 86.95 143.489 L 97.747 123.968 L 97.765 123.968 C 98.413 122.757 99.642 122.034 100.937 121.986 Z " />
    </g>
  </g>
</svg>
