<?xml version="1.0" standalone="no"?><!-- Generator: Gravit.io --><svg xmlns="http://www.w3.org/2000/svg" xmlns:xlink="http://www.w3.org/1999/xlink" style="isolation:isolate" viewBox="0 0 200 200" width="200" height="200"><defs><clipPath id="_clipPath_t15Ip0m6luSq1DpSErjpxR9gY2xxZpZA"><rect width="200" height="200"/></clipPath></defs><g clip-path="url(#_clipPath_t15Ip0m6luSq1DpSErjpxR9gY2xxZpZA)"><g style="isolation:isolate" id="Layer 0"><polygon points="52.606,181.667,4.878,99,52.606,16.333,148.061,16.333,195.789,99,148.061,181.667" fill="rgb(83,107,185)"/></g><g style="isolation:isolate" id="Kubernetes"/><g style="isolation:isolate" id="redis"><g id="Group"><path d=" M 161.399 63.034 C 154.541 60.528 118.272 46.109 111.326 43.559 C 104.38 41.009 101.566 41.141 93.389 44.043 C 85.212 46.988 46.613 62.111 39.755 64.793 C 32.897 67.475 33.029 69.805 40.019 73.146 C 47.009 76.487 85.828 92.181 91.938 95.083 C 98.049 97.984 102.401 98.072 110.139 94.028 C 117.92 89.983 154.365 74.992 161.399 71.299 L 161.399 71.299 C 168.521 67.65 168.257 65.54 161.399 63.034 Z  M 57.384 68.222 C 57.384 64.705 64.682 61.891 73.738 61.891 C 82.794 61.891 90.092 64.749 90.092 68.222 C 90.092 71.695 82.75 74.552 73.738 74.552 C 64.682 74.552 57.384 71.695 57.384 68.222 Z  M 103.281 88.313 L 81.959 79.476 L 112.557 74.772 L 103.281 88.313 Z  M 106.534 59.649 L 103.984 65.804 L 99.852 58.946 L 86.663 57.759 L 96.511 54.198 L 93.565 48.747 L 102.797 52.351 L 111.502 49.494 L 109.172 55.121 L 118.052 58.462 L 106.534 59.649 Z " fill="rgb(255,255,255)"/><path d=" M 131.505 60.133 L 149.573 67.299 L 131.505 74.421 L 131.505 60.133 Z " fill="rgb(0,0,0)"/><path d=" M 111.458 68.046 L 131.505 60.133 L 131.505 74.421 L 129.526 75.212 L 111.458 68.046 Z " fill="rgb(1,1,1)"/><path d=" M 161.399 85.587 C 161.091 85.499 160.74 85.367 160.344 85.191 C 151.2 89.632 117.612 103.48 110.183 107.348 C 102.401 111.393 98.093 111.349 91.982 108.404 C 86.091 105.59 49.866 90.95 40.942 86.862 C 40.502 87.038 40.107 87.214 39.755 87.302 C 32.897 89.983 33.029 92.313 40.019 95.654 C 47.009 98.996 85.828 114.69 91.938 117.592 C 98.093 120.537 102.401 120.581 110.139 116.537 C 117.92 112.492 154.365 97.501 161.399 93.808 L 161.399 93.808 C 168.521 90.203 168.257 88.093 161.399 85.587 Z " fill="rgb(255,255,255)"/><path d=" M 161.487 71.299 L 161.487 71.299 C 154.453 74.948 117.964 89.983 110.227 94.028 C 102.445 98.072 98.137 98.028 92.026 95.083 C 85.916 92.137 47.053 76.487 40.063 73.146 C 36.59 71.475 34.787 70.068 34.743 68.749 L 34.743 82.07 C 34.743 83.389 36.59 84.796 40.063 86.466 C 47.053 89.807 85.872 105.502 91.982 108.404 C 98.137 111.349 102.445 111.393 110.183 107.348 C 117.964 103.304 154.409 88.313 161.443 84.62 L 161.443 84.62 C 165.048 82.773 166.631 81.323 166.631 80.004 C 166.631 78.773 166.631 66.859 166.631 66.859 C 166.631 66.859 166.631 66.859 166.631 66.859 C 166.587 68.134 164.916 69.541 161.487 71.299 Z " fill="rgb(255,255,255)" vector-effect="non-scaling-stroke" stroke-width="2" stroke="rgb(0,0,0)" stroke-linejoin="miter" stroke-linecap="butt" stroke-miterlimit="4"/><path d=" M 161.399 107.348 C 161.091 107.261 160.74 107.129 160.344 106.953 C 151.2 111.393 117.612 125.241 110.183 129.11 C 102.401 133.154 98.093 133.11 91.982 130.165 C 86.091 127.351 49.866 112.712 40.942 108.623 C 40.502 108.799 40.107 108.975 39.755 109.063 C 32.897 111.745 33.029 114.075 40.019 117.416 C 47.009 120.757 85.828 136.452 91.938 139.353 C 98.093 142.299 102.401 143.002 110.139 138.957 C 117.92 134.913 154.365 119.922 161.399 116.229 L 161.399 115.569 C 168.521 111.921 168.257 109.854 161.399 107.348 Z " fill="rgb(255,255,255)"/><path d=" M 161.487 93.852 L 161.487 93.852 C 154.453 97.501 117.964 112.536 110.227 116.581 C 102.445 120.625 98.137 120.581 92.026 117.636 C 85.872 114.69 47.097 99.04 40.107 95.698 C 36.634 94.028 34.831 92.621 34.787 91.302 L 34.787 104.623 C 34.787 105.942 36.634 107.348 40.107 109.019 C 47.097 112.36 85.916 128.055 92.026 130.956 C 98.181 133.902 102.489 133.946 110.227 129.901 C 118.008 125.857 154.453 110.865 161.487 107.173 C 165.092 105.326 166.675 103.875 166.675 102.557 C 166.675 101.326 166.675 89.412 166.675 89.412 C 166.675 89.412 166.675 89.412 166.675 89.412 C 166.587 90.687 164.916 92.093 161.487 93.852 Z " fill="rgb(255,255,255)" vector-effect="non-scaling-stroke" stroke-width="2" stroke="rgb(0,0,0)" stroke-linejoin="miter" stroke-linecap="square" stroke-miterlimit="3"/><path d=" M 161.487 115.613 C 161.487 115.613 117.964 134.957 110.227 139.001 C 102.445 143.046 98.137 142.343 92.026 139.397 C 85.872 136.452 47.097 120.801 40.107 117.46 C 36.634 115.789 34.831 114.382 34.787 113.064 L 34.787 126.384 C 34.787 127.703 36.634 129.11 40.107 130.78 C 47.097 134.122 85.916 149.816 92.026 152.718 C 98.181 155.663 102.489 155.707 110.227 151.663 C 118.008 147.618 154.453 133.286 161.487 129.593 C 165.092 127.747 166.675 125.637 166.675 124.318 C 166.675 123.087 166.675 111.173 166.675 111.173 C 166.675 111.173 166.675 111.173 166.675 111.173 C 166.587 112.448 164.916 113.855 161.487 115.613 Z " fill="rgb(255,255,255)" vector-effect="non-scaling-stroke" stroke-width="2" stroke="rgb(0,0,0)" stroke-linejoin="miter" stroke-linecap="butt" stroke-miterlimit="4"/><path d=" M 57.384 68.222 C 57.384 64.705 64.682 61.891 73.738 61.891 C 82.794 61.891 90.092 64.749 90.092 68.222 C 90.092 71.695 82.75 74.552 73.738 74.552 C 64.682 74.552 57.384 71.695 57.384 68.222 Z " fill="rgb(0,0,0)" vector-effect="non-scaling-stroke" stroke-width="2" stroke="rgb(0,0,0)" stroke-linejoin="miter" stroke-linecap="butt" stroke-miterlimit="4"/><path d=" M 103.281 88.313 L 81.959 79.476 L 112.557 74.772 L 103.281 88.313 Z " fill="rgb(0,0,0)" vector-effect="non-scaling-stroke" stroke-width="2" stroke="rgb(0,0,0)" stroke-linejoin="miter" stroke-linecap="butt" stroke-miterlimit="4"/><path d=" M 106.534 59.649 L 103.984 65.804 L 99.852 58.946 L 86.663 57.759 L 96.511 54.198 L 93.565 48.747 L 102.797 52.351 L 111.502 49.494 L 109.172 55.121 L 118.052 58.462 L 106.534 59.649 Z " fill="rgb(0,0,0)" vector-effect="non-scaling-stroke" stroke-width="2" stroke="rgb(0,0,0)" stroke-linejoin="miter" stroke-linecap="butt" stroke-miterlimit="4"/></g></g></g></svg>